<svg height="260pt" preserveAspectRatio="xMidYMid meet" viewBox="0 0 260 260" width="260pt" xmlns="http://www.w3.org/2000/svg"><g transform="matrix(.1 0 0 -.1 0 260)"><path d="m1240 2288c-19-5-54-15-77-21-31-8-63-31-118-84-41-40-75-75-75-78 0-4-12-22-26-41-15-20-24-40-20-50 3-9-3-29-15-46-16-22-19-32-10-38 10-5 9-10-1-21-9-9-13-28-10-51 2-20-1-46-7-56-6-11-7-22-4-26 13-12 11-35-3-47-8-6-48-13-90-15-77-3-98-13-87-41 4-9 17-12 42-10 20 2 48 0 62-5 16-5 36-5 52 1l25 10-3-74c-1-40-6-79-10-85-4-7-3-15 3-19 7-4 9-17 3-36-4-17-3-48 1-70 5-22 8-51 8-65-1-14-1-29-1-35 10-107 9-160-4-179-20-27-19-33 6-39 19-5 20-7 5-36-12-22-13-29-3-25 18 6 19-28 2-76-10-29-11-40-2-43 16-5-21-85-43-92-9-3-40-7-70-10-61-5-79-17-61-39 16-19 95-29 201-26 47 1 168 3 270 4 154 2 184 5 182 17-5 20-23 30-52 28-41-3-120 12-127 25-4 6-9 27-10 46-2 19-6 55-8 80s-5 45-5 45c-1 0-3 10-6 23-2 14 2 25 11 28 18 7 19 26 3 42-10 10-13 86-14 302l-1 290 58 1c33 1 68 3 79 4s29 3 39 4c20 1 23 23 5 41-10 10-96 15-132 6-13-3-30-2-38 1-11 4-6 12 20 31 39 27 39 34 3 37-13 1-22 8-22 18 0 8-4 19-8 23-14 14-7 41 18 64l25 23-22 11c-27 13-31 62-15 166 11 71 59 159 86 158 9 0 25 3 37 7 13 4 28-1 45-14l24-21-45-39c-44-38-44-40-45-101 0-54 3-63 25-80 80-61 129-63 191-7 70 63 73 121 13 212-31 48-38 52-111 74-103 31-103 31-143 19zm-90-75c0-14-81-84-92-81-6 2 9 23 33 46 43 40 59 50 59 35zm301-76c-23-10-45-16-48-13-8 8 71 45 82 38 5-3-10-14-34-25zm-321 6c0-5-13-17-28-28-27-19-27-19-12 0 22 29 40 42 40 28zm368-64c-10-28-76-95-85-85-8 8 28 56 43 56 17 0 29 19 17 31-5 5-20 3-36-6-20-10-27-11-27-2 0 16 83 56 91 44 4-6 3-23-3-38zm-388-24c-7-8-19-15-27-15-10 0-8 6 8 19 27 22 38 19 19-4zm-104-22c-14-14-30-23-34-19s4 16 17 27c35 28 48 23 17-8zm378-17c-6-16-34-30-34-18 0 5 5 13 12 20 16 16 29 15 22-2zm-264-76c0-21-67-74-99-78-23-4-23-3-5 16 11 11 29 23 42 26 12 4 27 16 32 27 11 20 30 26 30 9zm-116-111c-3-5-16-8-29-7-17 2-21 6-14 14 11 13 52 7 43-7zm106 1c0-12-7-20-17-20s-31-7-47-15c-16-9-31-13-33-11-3 3 9 12 26 21 17 8 31 20 31 25 0 4 8 11 18 13 9 3 18 5 20 6 1 0 2-8 2-19zm-150-35c-7-8-16-15-21-15s-6 7-3 15c4 8 13 15 21 15 13 0 13-3 3-15zm135-15c-3-5-1-10 4-10 17 0 13-18-6-28-10-5-31-12-48-16-29-6-29-6-7 7 12 7 29 23 38 35 15 22 31 32 19 12zm-120-20c-3-5-11-10-16-10-6 0-7 5-4 10 3 6 11 10 16 10 6 0 7-4 4-10zm15-30c0-5-10-15-22-21-23-12-23-12-4 10 21 23 26 26 26 11zm106-97c-10-10-19 5-10 18 6 11 8 11 12 0 2-7 1-15-2-18zm1-42c1 0-8-12-20-25l-21-24-11 22c-7 11-11 23-9 26 2 5 55 6 61 1zm-74-41c-10-11-23-20-30-20s-13-4-13-9c0-9-41-23-48-16-5 5 88 65 100 65 4 0 0-9-9-20zm92-90c0-27-4-52-8-56s-2-13 4-20c7-8 7-14-1-19-6-3-8-11-5-16 15-23 12-49-6-65s-19-16-13-1c11 29-29 20-56-13-14-16-29-30-34-30s-21-10-34-22l-25-23 12 23c10 18 9 22-3 22-22 0-28 17-16 40 7 13 7 20 1 20-15 0 23 70 56 103 81 81 109 107 118 107 6 0 10-22 10-50zm-126-12c-21-23-39-45-39-49s-9-5-20-2-20 6-20 8c0 8 67 73 80 78 36 13 36 4-1-35zm121-213c0-8-6-15-13-15s-23-9-35-20-26-20-32-20-22-7-35-16c-14-9-25-14-25-10 0 3 19 18 43 33 23 15 44 30 47 33 5 5 42 28 48 29 1 1 2-6 2-14zm7-86c-2-12-15-33-28-47s-24-28-24-32-11-17-25-29c-14-11-20-20-14-21 6 0 25 14 42 30 35 33 52 38 52 15 0-15-38-55-52-55-12 0-68-55-68-67 0-15-47-63-61-63-7 0-4 7 7 15s14 15 7 15c-15 0-18 30-3 30 6 0 10-8 10-17 0-13 3-14 12-5s8 15-7 25c-11 9-15 19-10 27 5 9 4 11-3 6-11-7-17 8-12 29 1 6 4 20 5 33 4 26 22 52 37 52 5 0 22 12 37 26 54 51 103 67 98 33zm-87-4c-7-8-19-15-26-15-8 0-14-4-14-10 0-5-13-16-30-25-16-9-30-12-30-7 0 12 39 42 74 58 40 17 41 17 26-1zm61-185c-24-21-41-26-41-12 0 8 38 29 55 30 6 1-1-8-14-18zm12-85c-10-8-25-15-33-15-9 0-21-5-28-12-6-6-14-9-17-6-4 3 11 19 32 34 21 16 40 33 42 38s8 1 13-8c7-13 5-21-9-31zm-138-45c-23-24-27-33-16-39 16-10 47-3 79 17 34 22 36 9 2-17-20-14-49-23-81-25-46-3-49-2-34 14 8 9 15 20 15 25 0 12 42 55 54 55 5 0-3-14-19-30zm165-8c0-18-58-48-69-36-6 6 49 54 62 54 4 0 7-8 7-18z"/><path d="m990 1280c-13-8-12-10 3-10 9 0 17 5 17 10 0 12-1 12-20 0z"/><path d="m1004 1068c-3-4 4-8 15-8s22 4 25 8c2 4-4 8-15 8s-23-4-25-8z"/><path d="m985 999c-11-17 1-21 15-4 8 9 8 15 2 15s-14-5-17-11z"/><path d="m1408 1225c-7-24-2-374 5-381 12-13 19 3 23 58 3 29 6 67 8 84 6 55 93 168 151 196 21 10 54 13 110 10 44-2 90-4 103-5 28-1 28-1-5-44-16-20-41-60-58-89-16-30-66-106-109-171s-95-143-114-173c-20-30-46-71-59-91-13-19-23-40-23-46s-6-16-14-22c-18-15-92-139-101-168-5-18-1-24 17-28 13-3 36-2 51 4 18 7 28 7 33 0 3-6 19-7 37-3s97 9 177 10c355 7 444 13 450 30 3 9 5 99 4 201-1 142-5 187-15 194-17 10-19 8-24-32-15-120-34-173-84-244-72-101-83-106-245-111-70-2-132-2-136 1-5 3 3 24 16 48 13 23 27 49 31 57s15 24 26 35c10 11 32 47 48 81 16 33 37 69 47 80 9 10 30 37 46 59s34 45 40 50c23 20 66 84 66 97 0 7 13 28 28 45 15 18 43 53 62 79 19 25 45 57 57 71 12 15 25 42 30 62 18 72 39 67-337 67-218-1-341-5-342-11zm560-26c-3-10-78-42-78-33 0 3 71 43 78 44 2 0 2-5 0-11zm-508-98c-15-29-30-35-30-13s8 32 27 32c10 0 11-5 3-19zm400 5c0-3-4-8-10-11-5-3-10-1-10 4 0 6 5 11 10 11 6 0 10-2 10-4zm128-25c-13-22-66-33-75-17-3 6-3 8 1 4 5-4 17 2 29 13 11 10 29 19 39 19 15 0 16-3 6-19zm-73-60c-9-9-82-48-178-98-23-12-44-19-46-17-5 5 47 54 60 55 19 3 25 5 49 19 56 33 136 61 115 41zm-20-46c-11-8-27-20-35-27s-21-12-29-10c-10 3-10-1 3-13 13-14 19-15 31-5 20 17 19 1-2-22-9-10-23-18-32-17-10 0-12 2-3 6 13 5 17 23 4 23-4 0-32-16-61-36-30-19-59-36-65-37s-13-4-16-7c-12-12-60-40-70-40-6 0 0 14 12 31 13 18 54 46 98 67 41 20 80 42 85 48 9 11 84 53 95 53 3 0-4-6-15-14zm-107-175c-12-17-28-28-36-25-16 6-82-20-82-33 0-6-7-13-15-16-12-4-14-2-7 10 8 14 137 93 155 94 4 0-2-14-15-30zm-174-55c-35-26-47-15-17 17 11 13 20 15 27 8s4-15-10-25zm126-10c-7-8-19-15-27-15-10 0-8 6 8 19 27 22 38 19 19-4zm-110-20c0-8-7-15-15-15-9 0-12 6-9 15 4 8 10 15 15 15s9-7 9-15zm71-28c-6-8-34-26-63-41-112-57-152-81-156-94-3-10 2-10 25 0 15 7 31 17 35 23 4 5 8 7 8 3s18 2 40 13c23 12 44 19 47 15 3-3 0-7-8-10-36-11-47-17-111-59-16-10-28-15-28-12 0 4-12 0-26-10-26-16-26-16-19 7 10 31 57 100 63 93 3-3 25 7 50 21 36 21 133 62 151 64 2 0-2-6-8-13zm-122 0c-2-1-13-9-24-17-19-14-19-14-6 3 7 9 18 17 24 17s8-1 6-3zm483-89c-7-7-12-8-12-2 0 14 12 26 19 19 2-3-1-11-7-17zm-442-38c-14-11-34-20-44-20-23 0-20 4 19 24 42 22 55 19 25-4zm447-21c-5-32-47-54-47-25 0 8 10 22 22 30 28 20 29 20 25-5zm-507-34c-7-8-19-15-28-15-20 0-101-62-102-77 0-8-13-13-30-13-16 0-30 3-30 8 1 14 25 37 41 40 10 1 42 16 73 32 31 17 56 27 56 23s5-2 12 5c17 17 23 15 8-3zm504-51c-3-30-2-30-31-38-18-6-21-4-16 16 5 22 29 48 44 48 3 0 5-12 3-26zm-519-14c-9-14-75-44-82-37-5 6 39 29 59 31 3 1 10 4 14 9 11 10 16 9 9-3z"/></g></svg>