<?xml version="1.0" standalone="no"?>
<!DOCTYPE svg PUBLIC "-//W3C//DTD SVG 20010904//EN"
 "http://www.w3.org/TR/2001/REC-SVG-20010904/DTD/svg10.dtd">
<svg version="1.0" xmlns="http://www.w3.org/2000/svg"
 width="260.000000pt" height="260.000000pt" viewBox="0 0 260.000000 260.000000"
 preserveAspectRatio="xMidYMid meet">
<metadata>
Created by potrace 1.11, written by Peter Selinger 2001-2013
</metadata>
<g transform="translate(0.000000,260.000000) scale(0.100000,-0.100000)"
fill="#000000" stroke="none">
<path d="M1240 2288 c-19 -5 -54 -15 -77 -21 -31 -8 -63 -31 -118 -84 -41 -40
-75 -75 -75 -78 0 -4 -12 -22 -26 -41 -15 -20 -24 -40 -20 -50 3 -9 -3 -29
-15 -46 -16 -22 -19 -32 -10 -38 10 -5 9 -10 -1 -21 -9 -9 -13 -28 -10 -51 2
-20 -1 -46 -7 -56 -6 -11 -7 -22 -4 -26 13 -12 11 -35 -3 -47 -8 -6 -48 -13
-90 -15 -77 -3 -98 -13 -87 -41 4 -9 17 -12 42 -10 20 2 48 0 62 -5 16 -5 36
-5 52 1 l25 10 -3 -74 c-1 -40 -6 -79 -10 -85 -4 -7 -3 -15 3 -19 7 -4 9 -17
3 -36 -4 -17 -3 -48 1 -70 5 -22 8 -51 8 -65 -1 -14 -1 -29 -1 -35 10 -107 9
-160 -4 -179 -20 -27 -19 -33 6 -39 19 -5 20 -7 5 -36 -12 -22 -13 -29 -3 -25
18 6 19 -28 2 -76 -10 -29 -11 -40 -2 -43 16 -5 -21 -85 -43 -92 -9 -3 -40 -7
-70 -10 -61 -5 -79 -17 -61 -39 16 -19 95 -29 201 -26 47 1 168 3 270 4 154 2
184 5 182 17 -5 20 -23 30 -52 28 -41 -3 -120 12 -127 25 -4 6 -9 27 -10 46
-2 19 -6 55 -8 80 -2 25 -5 45 -5 45 -1 0 -3 10 -6 23 -2 14 2 25 11 28 18 7
19 26 3 42 -10 10 -13 86 -14 302 l-1 290 58 1 c33 1 68 3 79 4 11 1 29 3 39
4 20 1 23 23 5 41 -10 10 -96 15 -132 6 -13 -3 -30 -2 -38 1 -11 4 -6 12 20
31 39 27 39 34 3 37 -13 1 -22 8 -22 18 0 8 -4 19 -8 23 -14 14 -7 41 18 64
l25 23 -22 11 c-27 13 -31 62 -15 166 11 71 59 159 86 158 9 0 25 3 37 7 13 4
28 -1 45 -14 l24 -21 -45 -39 c-44 -38 -44 -40 -45 -101 0 -54 3 -63 25 -80
80 -61 129 -63 191 -7 70 63 73 121 13 212 -31 48 -38 52 -111 74 -103 31
-103 31 -143 19z m-90 -75 c0 -14 -81 -84 -92 -81 -6 2 9 23 33 46 43 40 59
50 59 35z m301 -76 c-23 -10 -45 -16 -48 -13 -8 8 71 45 82 38 5 -3 -10 -14
-34 -25z m-321 6 c0 -5 -13 -17 -28 -28 -27 -19 -27 -19 -12 0 22 29 40 42 40
28z m368 -64 c-10 -28 -76 -95 -85 -85 -8 8 28 56 43 56 17 0 29 19 17 31 -5
5 -20 3 -36 -6 -20 -10 -27 -11 -27 -2 0 16 83 56 91 44 4 -6 3 -23 -3 -38z
m-388 -24 c-7 -8 -19 -15 -27 -15 -10 0 -8 6 8 19 27 22 38 19 19 -4z m-104
-22 c-14 -14 -30 -23 -34 -19 -4 4 4 16 17 27 35 28 48 23 17 -8z m378 -17
c-6 -16 -34 -30 -34 -18 0 5 5 13 12 20 16 16 29 15 22 -2z m-264 -76 c0 -21
-67 -74 -99 -78 -23 -4 -23 -3 -5 16 11 11 29 23 42 26 12 4 27 16 32 27 11
20 30 26 30 9z m-116 -111 c-3 -5 -16 -8 -29 -7 -17 2 -21 6 -14 14 11 13 52
7 43 -7z m106 1 c0 -12 -7 -20 -17 -20 -10 0 -31 -7 -47 -15 -16 -9 -31 -13
-33 -11 -3 3 9 12 26 21 17 8 31 20 31 25 0 4 8 11 18 13 9 3 18 5 20 6 1 0 2
-8 2 -19z m-150 -35 c-7 -8 -16 -15 -21 -15 -5 0 -6 7 -3 15 4 8 13 15 21 15
13 0 13 -3 3 -15z m135 -15 c-3 -5 -1 -10 4 -10 17 0 13 -18 -6 -28 -10 -5
-31 -12 -48 -16 -29 -6 -29 -6 -7 7 12 7 29 23 38 35 15 22 31 32 19 12z
m-120 -20 c-3 -5 -11 -10 -16 -10 -6 0 -7 5 -4 10 3 6 11 10 16 10 6 0 7 -4 4
-10z m15 -30 c0 -5 -10 -15 -22 -21 -23 -12 -23 -12 -4 10 21 23 26 26 26 11z
m106 -97 c-10 -10 -19 5 -10 18 6 11 8 11 12 0 2 -7 1 -15 -2 -18z m1 -42 c1
0 -8 -12 -20 -25 l-21 -24 -11 22 c-7 11 -11 23 -9 26 2 5 55 6 61 1z m-74
-41 c-10 -11 -23 -20 -30 -20 -7 0 -13 -4 -13 -9 0 -9 -41 -23 -48 -16 -5 5
88 65 100 65 4 0 0 -9 -9 -20z m92 -90 c0 -27 -4 -52 -8 -56 -4 -4 -2 -13 4
-20 7 -8 7 -14 -1 -19 -6 -3 -8 -11 -5 -16 15 -23 12 -49 -6 -65 -18 -16 -19
-16 -13 -1 11 29 -29 20 -56 -13 -14 -16 -29 -30 -34 -30 -5 0 -21 -10 -34
-22 l-25 -23 12 23 c10 18 9 22 -3 22 -22 0 -28 17 -16 40 7 13 7 20 1 20 -15
0 23 70 56 103 81 81 109 107 118 107 6 0 10 -22 10 -50z m-126 -12 c-21 -23
-39 -45 -39 -49 0 -4 -9 -5 -20 -2 -11 3 -20 6 -20 8 0 8 67 73 80 78 36 13
36 4 -1 -35z m121 -213 c0 -8 -6 -15 -13 -15 -7 0 -23 -9 -35 -20 -12 -11 -26
-20 -32 -20 -6 0 -22 -7 -35 -16 -14 -9 -25 -14 -25 -10 0 3 19 18 43 33 23
15 44 30 47 33 5 5 42 28 48 29 1 1 2 -6 2 -14z m7 -86 c-2 -12 -15 -33 -28
-47 -13 -14 -24 -28 -24 -32 0 -4 -11 -17 -25 -29 -14 -11 -20 -20 -14 -21 6
0 25 14 42 30 35 33 52 38 52 15 0 -15 -38 -55 -52 -55 -12 0 -68 -55 -68 -67
0 -15 -47 -63 -61 -63 -7 0 -4 7 7 15 11 8 14 15 7 15 -15 0 -18 30 -3 30 6 0
10 -8 10 -17 0 -13 3 -14 12 -5 9 9 8 15 -7 25 -11 9 -15 19 -10 27 5 9 4 11
-3 6 -11 -7 -17 8 -12 29 1 6 4 20 5 33 4 26 22 52 37 52 5 0 22 12 37 26 54
51 103 67 98 33z m-87 -4 c-7 -8 -19 -15 -26 -15 -8 0 -14 -4 -14 -10 0 -5
-13 -16 -30 -25 -16 -9 -30 -12 -30 -7 0 12 39 42 74 58 40 17 41 17 26 -1z
m61 -185 c-24 -21 -41 -26 -41 -12 0 8 38 29 55 30 6 1 -1 -8 -14 -18z m12
-85 c-10 -8 -25 -15 -33 -15 -9 0 -21 -5 -28 -12 -6 -6 -14 -9 -17 -6 -4 3 11
19 32 34 21 16 40 33 42 38 2 5 8 1 13 -8 7 -13 5 -21 -9 -31z m-138 -45 c-23
-24 -27 -33 -16 -39 16 -10 47 -3 79 17 34 22 36 9 2 -17 -20 -14 -49 -23 -81
-25 -46 -3 -49 -2 -34 14 8 9 15 20 15 25 0 12 42 55 54 55 5 0 -3 -14 -19
-30z m165 -8 c0 -18 -58 -48 -69 -36 -6 6 49 54 62 54 4 0 7 -8 7 -18z"/>
<path d="M990 1280 c-13 -8 -12 -10 3 -10 9 0 17 5 17 10 0 12 -1 12 -20 0z"/>
<path d="M1004 1068 c-3 -4 4 -8 15 -8 11 0 22 4 25 8 2 4 -4 8 -15 8 -11 0
-23 -4 -25 -8z"/>
<path d="M985 999 c-11 -17 1 -21 15 -4 8 9 8 15 2 15 -6 0 -14 -5 -17 -11z"/>
<path d="M1408 1225 c-7 -24 -2 -374 5 -381 12 -13 19 3 23 58 3 29 6 67 8 84
6 55 93 168 151 196 21 10 54 13 110 10 44 -2 90 -4 103 -5 28 -1 28 -1 -5
-44 -16 -20 -41 -60 -58 -89 -16 -30 -66 -106 -109 -171 -43 -65 -95 -143
-114 -173 -20 -30 -46 -71 -59 -91 -13 -19 -23 -40 -23 -46 0 -6 -6 -16 -14
-22 -18 -15 -92 -139 -101 -168 -5 -18 -1 -24 17 -28 13 -3 36 -2 51 4 18 7
28 7 33 0 3 -6 19 -7 37 -3 18 4 97 9 177 10 355 7 444 13 450 30 3 9 5 99 4
201 -1 142 -5 187 -15 194 -17 10 -19 8 -24 -32 -15 -120 -34 -173 -84 -244
-72 -101 -83 -106 -245 -111 -70 -2 -132 -2 -136 1 -5 3 3 24 16 48 13 23 27
49 31 57 4 8 15 24 26 35 10 11 32 47 48 81 16 33 37 69 47 80 9 10 30 37 46
59 16 22 34 45 40 50 23 20 66 84 66 97 0 7 13 28 28 45 15 18 43 53 62 79 19
25 45 57 57 71 12 15 25 42 30 62 18 72 39 67 -337 67 -218 -1 -341 -5 -342
-11z m560 -26 c-3 -10 -78 -42 -78 -33 0 3 71 43 78 44 2 0 2 -5 0 -11z m-508
-98 c-15 -29 -30 -35 -30 -13 0 22 8 32 27 32 10 0 11 -5 3 -19z m400 5 c0 -3
-4 -8 -10 -11 -5 -3 -10 -1 -10 4 0 6 5 11 10 11 6 0 10 -2 10 -4z m128 -25
c-13 -22 -66 -33 -75 -17 -3 6 -3 8 1 4 5 -4 17 2 29 13 11 10 29 19 39 19 15
0 16 -3 6 -19z m-73 -60 c-9 -9 -82 -48 -178 -98 -23 -12 -44 -19 -46 -17 -5
5 47 54 60 55 19 3 25 5 49 19 56 33 136 61 115 41z m-20 -46 c-11 -8 -27 -20
-35 -27 -8 -7 -21 -12 -29 -10 -10 3 -10 -1 3 -13 13 -14 19 -15 31 -5 20 17
19 1 -2 -22 -9 -10 -23 -18 -32 -17 -10 0 -12 2 -3 6 13 5 17 23 4 23 -4 0
-32 -16 -61 -36 -30 -19 -59 -36 -65 -37 -6 -1 -13 -4 -16 -7 -12 -12 -60 -40
-70 -40 -6 0 0 14 12 31 13 18 54 46 98 67 41 20 80 42 85 48 9 11 84 53 95
53 3 0 -4 -6 -15 -14z m-107 -175 c-12 -17 -28 -28 -36 -25 -16 6 -82 -20 -82
-33 0 -6 -7 -13 -15 -16 -12 -4 -14 -2 -7 10 8 14 137 93 155 94 4 0 -2 -14
-15 -30z m-174 -55 c-35 -26 -47 -15 -17 17 11 13 20 15 27 8 7 -7 4 -15 -10
-25z m126 -10 c-7 -8 -19 -15 -27 -15 -10 0 -8 6 8 19 27 22 38 19 19 -4z
m-110 -20 c0 -8 -7 -15 -15 -15 -9 0 -12 6 -9 15 4 8 10 15 15 15 5 0 9 -7 9
-15z m71 -28 c-6 -8 -34 -26 -63 -41 -112 -57 -152 -81 -156 -94 -3 -10 2 -10
25 0 15 7 31 17 35 23 4 5 8 7 8 3 0 -4 18 2 40 13 23 12 44 19 47 15 3 -3 0
-7 -8 -10 -36 -11 -47 -17 -111 -59 -16 -10 -28 -15 -28 -12 0 4 -12 0 -26
-10 -26 -16 -26 -16 -19 7 10 31 57 100 63 93 3 -3 25 7 50 21 36 21 133 62
151 64 2 0 -2 -6 -8 -13z m-122 0 c-2 -1 -13 -9 -24 -17 -19 -14 -19 -14 -6 3
7 9 18 17 24 17 6 0 8 -1 6 -3z m483 -89 c-7 -7 -12 -8 -12 -2 0 14 12 26 19
19 2 -3 -1 -11 -7 -17z m-442 -38 c-14 -11 -34 -20 -44 -20 -23 0 -20 4 19 24
42 22 55 19 25 -4z m447 -21 c-5 -32 -47 -54 -47 -25 0 8 10 22 22 30 28 20
29 20 25 -5z m-507 -34 c-7 -8 -19 -15 -28 -15 -20 0 -101 -62 -102 -77 0 -8
-13 -13 -30 -13 -16 0 -30 3 -30 8 1 14 25 37 41 40 10 1 42 16 73 32 31 17
56 27 56 23 0 -4 5 -2 12 5 17 17 23 15 8 -3z m504 -51 c-3 -30 -2 -30 -31
-38 -18 -6 -21 -4 -16 16 5 22 29 48 44 48 3 0 5 -12 3 -26z m-519 -14 c-9
-14 -75 -44 -82 -37 -5 6 39 29 59 31 3 1 10 4 14 9 11 10 16 9 9 -3z"/>
</g>
</svg>
